<?xml version="1.0" encoding="utf-8" ?><svg xmlns="http://www.w3.org/2000/svg" xmlns:xlink="http://www.w3.org/1999/xlink" width="4575" height="1605" viewBox="0 0 4575 1605"><path fill="#2195F2" transform="scale(5.83546 5.83636)" d="M705.424 119.238C714.379 119.155 726.048 118.852 734.771 119.452C735.079 121.583 736.788 126.07 737.556 128.344L743.017 144.68L764.253 211.228C766.04 216.704 778.931 253.648 778.354 256.85C775.524 258.35 760.707 262.762 756.53 264.284C754.086 258.274 752.046 249.641 749.596 243.057L734.713 243.038L706.116 243.089C701.908 243.1 694.302 243.342 690.341 242.845C689.034 246.82 684.977 260.32 683.269 263.456C682.235 263.862 663.225 257.647 660.507 256.82C660.905 255.003 663.515 247.735 664.293 245.288L674.838 213.016L692.905 157.076C694.378 152.472 703.817 121.169 705.424 119.238ZM698.235 219.063C702.455 218.391 715.326 218.686 720.166 218.706L741.795 218.621C740.824 215.387 719.657 150.27 720.064 150.711C718.748 153.377 718.048 156.612 717.148 159.484C712.067 175.708 707.1 191.882 701.517 207.95C700.426 211.089 698.61 215.889 698.235 219.063Z"/><path fill="#2195F2" transform="scale(5.83546 5.83636)" d="M374.695 114.45C378.627 115.487 392.054 122.918 395.414 125.44C388.367 139.014 385.527 159.77 387.685 175.283C388.876 183.849 398.954 192.682 404.562 198.742C410.036 204.658 415.429 214.688 416.221 222.741C417.63 229.996 413.855 245.139 408.088 250.744C387.291 270.956 352.067 265.908 331.193 248.27C329.046 246.456 323.905 242.431 323.658 240.038C324.883 236.844 335.875 229.724 338.525 226.821C339.798 225.191 342.531 225.646 343.779 226.908C356.648 239.917 377.658 246.471 391.62 231.762C393.542 221.192 389.399 218.149 382.695 210.527C373.444 201.648 367.49 192.083 364.205 179.701C352.472 198.456 339.602 215.037 324.788 231.363C311.647 245.846 297.244 258.719 276.984 260.65C276.328 254.354 276.985 247.172 276.76 240.836C276.1 234.762 283.428 235.362 287.192 232.5C313.943 212.351 331.395 183.333 350.273 156.469C355.356 149.235 371.267 117.549 374.695 114.45Z"/><path fill="#2195F2" transform="scale(5.83546 5.83636)" d="M438.727 119.284C465.918 119.009 496.35 118.766 523.45 119.323C523.487 127.277 523.622 135.484 523.478 143.416C518.829 143.905 507.7 143.605 502.479 143.601L460.526 143.616C461.124 152.189 460.616 167.632 460.586 176.761L507.321 176.725C507.861 183.27 507.583 193.456 507.583 200.28C492.128 199.98 476.047 200.185 460.533 200.17C460.771 204.074 460.594 209.834 460.598 213.877C460.576 220.42 460.957 230.255 460.631 236.389L523.44 236.378C523.517 244.199 523.676 252.658 523.406 260.431C495.135 260.836 465.889 260.425 437.542 260.467C437.184 247.976 437.391 234.554 437.399 222.003L437.392 159.116L437.392 131.045C437.399 127.846 437.342 123.913 437.523 120.707C437.57 119.86 438.09 119.694 438.727 119.284Z"/><path fill="#2195F2" transform="scale(5.83546 5.83636)" d="M185.436 124.003C186.289 124.027 187.79 124.167 188.444 124.674C197.495 131.693 205.796 142.914 214.527 150.028C216.511 148.508 219.889 147.148 222.506 145.426C221.459 138.859 223.628 137.205 229.28 134.837C235.855 135.848 239.368 139.021 236.602 146.863C235.604 149.693 230.196 149.34 227.47 149.997C225.402 151.851 223.603 155.99 222.315 158.585C231.174 166.718 239.842 175.06 247.786 184.068C248.524 184.904 248.549 188.556 246.47 189.193C237.298 192.006 227.702 193.369 218.516 189.593C217.223 191.729 215.303 193.44 213.487 195.137C208.542 199.759 203.965 204.666 199.338 209.602L185.265 223.735C179.891 229.202 175.933 233.574 169.883 238.282C159.754 239.688 156.564 235.053 150.072 227.821C145.493 222.72 135.848 216.082 134.73 209.349C133.394 201.306 140.247 196.629 145.113 191.335C153.322 182.405 162.667 174.034 171.136 165.339C174.813 161.546 179.506 157.818 182.764 153.696C180.967 147.456 179.814 128.121 185.436 124.003Z"/><path fill="#2195F2" transform="scale(5.83546 5.83636)" d="M553.365 112.888C555.981 115.954 560.724 124 563 127.661L576.917 149.673C581.546 157.015 591.211 170.606 594.449 177.692C596.441 172.69 599.866 167.448 602.781 162.909C613.375 146.412 624.006 129.114 634.992 112.941C639.571 115.261 650.645 122.718 654.945 125.898C653.212 130.47 648.775 136.509 646.142 140.664L629.162 167.248C626.939 170.671 622.192 178.711 619.793 181.416C616.361 189.518 610.401 194.682 607.303 202.252C606.396 204.469 606.661 215.179 606.664 218.216L606.681 244.622C606.678 249.462 606.841 255.683 606.412 260.394C598.471 260.516 590.36 260.494 582.419 260.385C582.057 246.818 582.319 233.191 582.354 219.618C582.366 214.737 583.089 207.412 582.148 202.858C581.659 200.494 537.171 130.941 533.497 126.082C539.631 120.879 547.531 117.541 553.365 112.888Z"/><path fill="#2195F2" transform="scale(5.83546 5.83636)" d="M158.568 140.372C160.383 140.746 163.548 144.923 164.814 146.524C163.187 150.909 160.851 152.447 157.488 155.699C159.312 158.068 160.561 159.172 162.84 161.099C160.833 163.654 157.98 165.637 155.294 169.021L150.063 163.215L146.486 167.337C140.923 173.159 138.572 169.914 134.447 164.46C140.14 157.573 151.841 146.362 158.568 140.372Z"/><path fill="#2195F2" transform="scale(5.83546 5.83636)" d="M223.279 208.763C228.029 208.157 233.434 212.882 230.348 216.089C227.393 219.161 209.93 237.886 207.514 238.18C206.386 238.032 206.041 237.61 205.17 236.851C198.916 229.209 204.798 228.708 208.408 222.611L208.499 222.456L207.787 221.836C206.133 220.381 204.801 219.562 204.661 217.35C204.866 216.402 208.928 212.228 209.775 211.612C212.524 209.613 214.038 214.235 216.575 214.793C219.484 214.557 220.524 210.824 223.279 208.763Z"/><path fill="#2195F2" transform="scale(5.83546 5.83636)" d="M123.398 136.912C125.577 137.709 136.723 148.86 136.769 150.692C135.855 154.085 131.72 157.07 128.956 158.977C125.977 157.552 118.055 148.535 115.77 145.974C118.053 141.889 119.794 139.972 123.398 136.912Z"/><path fill="#2195F2" transform="scale(5.83546 5.83636)" d="M237.192 220.186C239.411 220.279 249.468 230.654 250.775 232.956C250.469 235.008 244.893 240.049 243.15 241.369C240.008 241.042 231.016 231.085 229.011 228.25C231.161 225.712 234.551 222.163 237.192 220.186Z"/><path fill="#2195F2" transform="scale(5.83546 5.83636)" d="M221.085 235.38C223.23 236.167 233.373 246.469 234.731 248.993C234.126 251.833 229.649 254.379 227.566 257.491L227.481 257.62C225.245 257.454 214.678 246.405 213.87 243.934C214.376 242.384 219.69 236.776 221.085 235.38Z"/><path fill="#2195F2" transform="scale(5.83546 5.83636)" d="M139.35 121.763C139.901 121.896 141.119 122.27 141.451 122.652C143.503 125.011 152.252 132.482 152.665 135.34C151.76 137.033 146.656 141.58 144.969 143.175C142.483 142.285 133.761 132.987 132.069 130.314C131.051 128.706 137.514 122.392 139.35 121.763Z"/><path fill="#2195F2" transform="scale(5.83546 5.83636)" d="M111.312 124.723C113.27 125.443 114.931 127.639 116.39 129.123C120.345 133.149 114.394 136.682 111.566 138.925C111.069 139.345 110.577 139.377 109.929 139.516C106.796 138.827 105.845 136.175 106.041 133.159C106.275 129.557 108.687 126.958 111.312 124.723Z"/><path fill="#2195F2" transform="scale(5.83546 5.83636)" d="M239.686 254.547C242.16 254.578 245.952 259.541 247.575 261.45C245.479 263.722 243.406 266.327 240.447 267.302C236.375 267.219 235.001 265.908 232.038 263.368C233.766 261.124 237.794 256.478 239.686 254.547Z"/><path fill="#2195F2" transform="scale(5.83546 5.83636)" d="M126.647 111.892C126.768 111.884 126.888 111.875 127.008 111.867C139.973 112.78 129.958 120.816 126.128 124.043C125.972 124.096 125.42 124.069 125.217 124.068C123.344 122.645 120.454 119.379 118.747 117.561C121.353 114.352 122.624 112.816 126.647 111.892Z"/><path fill="#2195F2" transform="scale(5.83546 5.83636)" d="M256.381 238.895C258.884 239.278 259.876 243.949 260.446 246.023C259.792 248.214 256.994 253.997 254.436 253.882L253.957 253.157C251.606 251.254 249.878 249.659 247.697 247.589C250.542 244.414 253.223 241.742 256.381 238.895Z"/></svg>